<svg width="76" height="74" viewBox="0 0 76 74" fill="none" xmlns="http://www.w3.org/2000/svg">
<path fill-rule="evenodd" clip-rule="evenodd" d="M76 34.9105C75.9362 33.8746 75.8724 32.8557 75.8144 31.871C75.797 31.6263 75.7796 31.3815 75.7621 31.1425C75.7273 30.9034 75.6983 30.6644 75.6635 30.431C75.5939 29.9643 75.5301 29.5089 75.4663 29.0706C75.2284 28.7177 75.269 27.3858 74.805 27.0842C74.7817 26.5548 74.7759 26.367 74.5439 25.8832C74.863 26.0198 74.4163 25.314 74.6541 25.3595C74.4395 24.9668 74.5265 24.409 74.3002 24.2724C74.4105 24.853 74.6425 25.1774 74.4627 25.4108C74.3757 24.8587 74.0856 24.3293 74.1958 23.9024C74.0276 23.4926 73.5461 22.7925 73.6099 22.3941C73.3836 22.4282 73.4707 21.8989 73.2502 21.7224C73.1574 21.7167 73.1864 21.8989 73.1168 21.7794C72.8906 21.472 72.9196 20.9654 72.7049 20.7264C72.7397 20.8345 72.7745 20.937 72.6817 20.9426C72.5425 20.6865 72.6585 20.6524 72.5193 20.3962C72.3568 20.4304 72.5947 20.806 72.5947 20.9825C72.8093 21.102 73.2096 22.1095 73.1458 22.2802C72.9544 22.007 72.8035 21.9558 72.8325 21.5972C72.6817 21.5858 72.8093 21.8078 72.7165 21.8477C72.8267 22.1379 72.9776 22.0867 73.0878 22.4055C72.9428 22.3941 72.8209 22.2233 72.6817 22.1607C72.7861 22.4795 72.9544 22.3258 73.0646 22.6161C73.0124 22.7299 72.8151 22.4111 72.8789 22.6844C72.9196 22.7128 72.9486 22.747 72.966 22.7868C72.937 22.7925 72.908 22.7982 72.8789 22.8096C72.8209 22.838 72.7571 22.8722 72.6991 22.9007C72.7107 22.8608 72.7339 22.8324 72.7745 22.8153C72.6237 22.5762 72.6527 22.525 72.6237 22.2745C72.5135 22.3201 72.6005 22.7128 72.6643 22.9177C72.5367 22.986 72.4091 23.0486 72.2756 23.1112C72.264 23.1169 72.2408 23.0999 72.2176 23.0771C72.1944 22.9917 72.1654 22.912 72.1364 22.8267C72.1306 22.7299 72.1132 22.6331 72.0204 22.5591C71.9101 22.303 71.8231 22.0526 71.9392 21.859C71.6317 21.7111 71.2778 20.5442 71.3184 20.2312C71.2024 20.2539 71.069 20.1003 70.953 19.9181C70.953 19.8498 70.9529 19.7872 70.9645 19.7189C70.9762 19.6278 70.9007 19.5937 70.8021 19.6164C70.7325 19.4514 70.7035 19.3091 70.7441 19.2863C70.5991 19.1554 70.4598 19.0188 70.3148 18.8708C70.2684 18.757 70.222 18.6431 70.1698 18.5293C70.1814 18.5293 70.193 18.535 70.2046 18.5407C70.0248 18.1593 69.8391 17.8064 69.6419 17.4649C69.6361 17.4592 69.6361 17.4535 69.6303 17.4478C69.201 16.6681 68.7021 15.911 68.151 15.2109C67.9595 14.8922 67.7623 14.5564 67.5534 14.1864C67.4896 14.2376 67.4084 14.2035 67.3272 14.1238C67.2866 13.7595 66.9037 13.3896 66.5904 13.0594C66.515 12.809 66.3932 12.5699 66.2366 12.3366C66.2482 12.3195 66.2598 12.3024 66.283 12.2853C66.1728 12.143 66.1264 12.126 66.0915 12.143C66.0451 12.0804 65.9929 12.0235 65.9465 11.9666C65.7377 11.7161 65.5056 11.4714 65.291 11.2266C65.0647 10.9876 64.8501 10.7485 64.6818 10.4981C64.1597 9.69553 63.6376 8.87021 63.0459 8.08473C62.431 7.32771 61.7406 6.61623 60.8299 6.16657C60.65 6.02428 60.6384 6.27471 60.476 6.16088C59.9423 5.67138 59.2345 5.22741 58.521 4.75499C57.7784 4.3281 57.0359 3.86137 56.3281 3.46294C55.3419 2.8596 54.4833 2.09119 53.3753 1.68707C52.7256 1.47078 52.1397 1.3171 51.5885 1.27157C51.0374 1.23173 50.5269 1.27726 50.0454 1.42525C49.0824 1.02682 47.7191 1.46509 46.8548 0.810529C46.6401 0.838988 46.6169 1.05528 46.263 0.941439C46.0078 0.890213 46.0368 0.77638 45.915 0.696693C45.857 0.958519 46.002 0.930054 45.7989 1.11789C46.5473 1.1805 46.8722 1.31141 47.5509 1.24311C47.7191 1.3171 47.7597 1.41387 48.0324 1.47648C49.5407 1.49924 51.3391 1.63585 53.2361 2.26196C55.0577 2.88806 56.5718 4.18011 57.906 4.55008C58.1497 4.7436 57.8886 4.8916 58.0395 5.07374C58.7704 5.26726 59.0663 5.92183 59.7914 6.35441C60.2903 6.67884 60.9111 6.72437 61.4506 7.13988C61.9843 7.57815 62.3498 8.01074 62.7326 8.46608C63.0981 8.93282 63.4752 9.42232 64.0263 9.98581C64.0321 10.02 64.0379 10.0484 64.0437 10.0826C63.7769 9.86628 63.5912 9.66138 63.1677 9.34264C63.2257 9.24018 63.3882 9.49062 63.4578 9.4337C63.1503 9.12065 62.8777 8.92713 62.6456 8.72791C62.4136 8.5287 62.2221 8.3181 62.0539 7.99936C61.9263 8.19288 61.584 7.80583 61.4216 7.8969C61.7812 8.23272 62.2453 8.65391 62.2395 9.00681C61.8857 8.81898 61.9437 8.50593 61.7348 8.49455C61.9553 8.90436 62.2163 9.12634 62.5238 9.33694C62.8313 9.54754 63.1387 9.78091 63.4868 10.168C63.4404 10.2192 63.3824 10.2135 63.3186 10.2021C63.4984 10.5152 63.8581 10.7258 64.1249 10.9136C64.1829 11.0047 64.2526 11.09 64.3164 11.1754C64.27 11.1469 64.2236 11.1242 64.1655 11.1128C64.2236 11.2323 64.299 11.3576 64.3454 11.4771C64.2932 11.4486 64.2468 11.4315 64.2178 11.4372C64.2816 11.4998 64.3396 11.5625 64.3918 11.6251C64.4034 11.6877 64.4092 11.7503 64.3918 11.8015C63.9277 11.5511 63.4984 11.4316 63.0807 11.3348C63.0169 11.2437 62.9705 11.1526 62.9357 11.073L62.8313 11.1754C62.8951 11.2266 62.9357 11.2722 62.9705 11.312C62.9067 11.3006 62.8487 11.2836 62.7849 11.2722C62.7559 11.2437 62.7268 11.2153 62.7036 11.1811C62.7559 11.1299 62.6572 10.8965 62.5818 11.0559C62.663 11.1356 62.6804 11.1925 62.6514 11.238C62.5064 11.1526 62.3382 11.1014 62.2221 10.9876C62.0945 10.8624 62.0481 10.6631 61.9437 10.5208C61.7986 10.3273 61.3636 10.3273 61.2649 10.5493C61.2301 10.6233 61.1953 10.6859 61.1547 10.7542C61.0213 10.6859 60.8879 10.6062 60.7544 10.5208C60.8067 10.2818 60.7718 10.037 60.6616 9.79229C60.6442 9.75814 60.5282 9.75244 60.4586 9.75244C60.4296 9.75244 60.3832 9.78091 60.3716 9.80936C60.3658 9.82075 60.36 9.83214 60.3542 9.84921C60.1511 9.76383 59.9423 9.64999 59.8901 9.41094C59.832 9.47355 59.803 9.53616 59.8262 9.61584C59.9829 9.7183 60.1337 9.80367 60.3135 9.98012C60.3135 9.9972 60.3135 10.0143 60.3194 10.02C60.4064 10.1053 60.447 10.2021 60.4818 10.2989C60.0699 9.91182 59.687 9.58739 59.3041 9.34264C59.2171 9.28572 59.1301 9.24018 59.0489 9.18895C59.0605 9.17757 59.0721 9.16619 59.0837 9.1548C59.0605 9.12634 59.0373 9.09788 59.0141 9.06942C58.9909 9.09219 58.9677 9.10926 58.9503 9.13203C58.6776 8.97835 58.4166 8.85882 58.1613 8.75637C58.0685 8.6653 57.9815 8.57423 57.9118 8.49455C57.819 8.42624 57.7146 8.36932 57.6102 8.30671C56.0787 6.93497 54.0715 5.60877 51.8728 4.63546C49.4711 3.54832 46.8896 2.88806 44.7315 2.66038C44.2384 2.43271 43.7743 2.26195 43.2638 2.1595C42.7533 2.05135 42.208 1.97167 41.5583 1.97167C40.8911 1.3854 39.5801 1.30572 38.3038 1.36833C37.9847 1.3854 37.6657 1.40248 37.3582 1.41955C37.0507 1.44232 36.7491 1.47078 36.4706 1.48216C35.9079 1.49924 35.4206 1.48217 35.0609 1.36264C34.4518 2.10827 32.3982 1.92614 31.6788 1.67569C31.5918 1.94321 31.2901 2.06274 30.9363 2.10827C30.5824 2.1595 30.1705 2.1538 29.8456 2.13104C29.8224 2.02858 30.3213 1.8066 29.7992 1.92044C29.5498 1.9489 29.573 2.06274 29.457 2.13673C29.2017 2.0229 28.8826 1.97167 28.726 1.77814C28.2561 1.84075 28.2271 2.02859 27.7572 2.0912C27.8442 1.92044 27.8906 1.7383 28.1633 1.61877C28.813 1.36264 28.9581 1.56185 29.3351 1.57324C29.2829 1.39679 29.0451 1.39679 29.399 1.26588C29.66 1.67569 30.1879 0.998359 30.5882 1.33418C30.3561 1.3911 30.1763 1.4594 30.1125 1.57324C30.5882 1.40817 31.1683 1.2488 31.586 1.1122C31.4526 1.13496 31.2553 1.12358 31.4468 1.06097C29.1437 0.975594 26.9915 1.3854 24.9668 2.07981C22.9364 2.77991 21.0278 3.75891 19.1076 4.92574C18.806 4.89159 18.3709 5.09081 17.9474 5.25587C16.9322 6.09827 16.1548 6.61623 16.3288 7.44155C17.5703 6.55931 18.4985 5.74537 20.7088 4.65254C21.2483 4.58423 21.724 4.66392 22.0024 4.99405C20.3897 6.04136 18.3419 6.63899 16.9554 7.88551C16.7581 8.06765 16.7349 8.20995 16.5377 8.36363C15.3368 9.30279 14.6349 9.65569 13.7937 10.2761C12.1578 11.4885 10.7829 13.1733 9.45442 14.6816C9.16436 15.0174 8.61325 15.1654 8.57844 15.7232C8.97873 15.3362 9.39061 14.9264 9.73288 14.5165C10.0868 14.1124 10.4058 13.7311 10.6089 13.3896C11.0614 13.031 11.6705 12.5415 12.2506 11.995C12.8655 11.4828 13.4631 10.9136 13.991 10.4924C14.2926 10.3273 14.5769 10.1566 14.8495 9.98581C15.128 9.82075 15.3891 9.65569 15.6443 9.48493C16.149 9.13204 16.6421 8.79052 17.1468 8.43193C18.1562 7.71476 19.2527 6.98051 20.7552 6.34302C21.0858 6.60485 21.3933 6.36579 21.8922 6.16657C22.0546 6.56501 22.4897 6.55362 23.0408 6.35441C23.2961 6.12104 22.7276 6.17227 22.9944 5.97874C23.3599 5.95597 23.708 5.95597 23.882 6.22349C23.5919 6.34302 23.2845 6.51947 23.0988 6.49101C23.3425 6.75852 23.9748 6.43409 24.1431 6.82114C23.6384 7.08865 23.1685 7.39602 22.716 7.69769C22.2751 8.02212 21.8458 8.34087 21.4281 8.6653C20.5927 9.32556 19.7748 9.95735 18.8176 10.4924C18.4637 10.4981 18.1678 10.3501 17.7849 10.4241C17.7791 10.8054 18.5449 10.4696 18.8118 10.6745C18.6145 10.9591 18.3071 11.238 18.0286 11.5283C17.9474 11.6194 17.8662 11.7105 17.7849 11.7958C17.7675 11.8015 17.7501 11.8072 17.7269 11.8129C17.3673 11.8983 16.9496 12.0178 16.7871 12.3878C16.7581 12.4504 16.7233 12.5073 16.6943 12.5642C16.4217 12.7691 16.1722 12.974 15.946 13.1789C15.9344 13.1846 15.9228 13.1903 15.9054 13.196C15.8822 13.2302 15.8531 13.2529 15.8299 13.2814C15.7893 13.3212 15.7371 13.3611 15.6965 13.4066C15.4065 13.6286 15.0352 13.64 14.6581 13.6343C14.5247 13.6343 14.4551 13.7083 14.4203 13.8278C14.397 13.8961 14.3622 13.9701 14.3158 14.0213C14.1998 14.1466 14.0954 14.3686 13.8749 14.1352C13.6719 14.1807 13.5675 14.3344 13.4979 14.4995C13.3702 14.8068 13.1962 15.0231 12.8191 15.0003C12.7495 14.9946 12.6567 15.0231 12.6103 15.0686C12.3492 15.3419 11.9663 15.5126 11.8445 15.8997C11.7691 16.1501 11.5603 16.0989 11.392 16.1273C11.363 16.1899 11.3398 16.2753 11.2992 16.2924C10.7249 16.4632 10.2956 16.8217 9.88951 17.2316C9.67487 17.4479 9.47763 17.6584 9.17017 17.778C8.75828 17.943 8.27098 18.091 8.3522 18.7114C8.3638 18.7911 8.22457 18.8936 8.14335 18.979C8.00412 19.1156 7.8649 19.2408 7.71407 19.366C7.63865 19.4286 7.56903 19.5766 7.44721 19.4343C7.36599 19.3375 7.15715 19.2806 7.31958 19.0871C7.36599 19.0302 7.4008 18.9562 7.4008 18.8822C7.4008 18.8139 7.35439 18.7456 7.33119 18.683C7.29638 18.7057 7.26737 18.7228 7.23256 18.7456C6.97731 18.9334 6.82068 19.2066 6.83808 19.4912C6.84969 19.6392 6.89029 19.7474 6.77427 19.8612C6.58283 20.0433 6.40879 20.2539 6.10133 20.2482C5.73005 20.2425 6.00271 20.4475 5.97371 20.5727C5.91569 20.8117 5.77646 21.1248 5.57342 21.2272C5.36458 21.3354 5.21955 21.4777 5.10933 21.6371C5.15573 21.4208 5.20795 21.2045 5.29496 20.9939C5.77066 19.7075 6.9193 18.3244 7.3892 17.0494C7.96352 16.8616 7.50522 16.6681 8.13755 16.2013C8.06214 16.0363 7.96932 15.7232 7.78368 15.8143C7.70246 15.7915 7.60964 15.8655 7.51682 15.9395C7.23837 16.6567 6.79167 17.0722 6.61184 17.7495C5.23695 19.1269 4.45379 20.7662 3.88527 22.5364C3.83306 22.5421 3.78665 22.5478 3.72864 22.5421C3.73444 22.6161 3.77505 22.673 3.82726 22.7071C3.81566 22.747 3.80405 22.7811 3.79245 22.821C3.74024 22.9917 3.69383 23.1625 3.64742 23.3332C3.5488 23.3958 3.45018 23.4528 3.33996 23.504C3.14272 23.5894 3.00929 23.7601 3.00349 24.0276C2.99189 24.7903 2.97448 24.796 2.27254 25.1945C2.21453 25.2286 2.15071 25.2457 2.0869 25.2628C2.0695 25.3994 1.99408 25.4791 1.86065 25.4961C1.87806 25.6783 2.16812 25.849 1.86065 26.0483C1.70402 26.1507 1.56479 26.2987 1.46617 26.4581C1.42556 26.5264 1.38495 26.589 1.33854 26.6516C1.33854 26.6231 1.33274 26.6004 1.32694 26.5776C1.31534 26.6231 1.29794 26.68 1.28053 26.7313C1.21672 26.8053 1.1413 26.8736 1.03108 26.9305C0.810636 27.0443 1.01948 27.2549 1.1065 27.4086C0.746823 27.8355 1.1123 28.4673 0.688811 28.8771C0.68301 29.1788 0.73522 29.4975 0.659804 29.7821C0.572786 30.1065 0.410353 30.3968 0.462563 30.7554C0.503172 31.0173 0.358142 31.1766 0.10289 31.2506C0.0564801 31.262 -0.00153267 31.4043 0.0216721 31.4384C0.184106 31.6832 0.0796851 31.9109 0.0158719 32.1442C0.311733 32.5028 0.242118 32.9354 0.224714 33.3452C0.207311 33.7493 0.334937 34.1819 0.0216721 34.5462C-0.0363399 34.6145 0.027474 34.7739 0.149299 34.8194C0.294329 34.8763 0.44516 34.9105 0.433558 35.1097C0.427757 35.2634 0.433558 35.4114 0.445161 35.565C0.485769 36.1912 0.358142 36.84 0.677208 37.4434C0.717817 37.5174 0.654003 37.6597 0.619196 37.7621C0.584389 37.8532 0.456763 37.9158 0.572787 38.041C0.752624 38.2288 0.706215 38.4679 0.688811 38.6899C0.654004 39.168 0.659805 39.3843 0.770028 39.5778C0.932461 39.8681 1.06009 40.1868 1.34435 40.4088C1.45457 40.4942 1.588 40.6422 1.5938 40.7674C1.6112 41.1146 1.68082 41.4334 1.84905 41.7293C1.77944 42.3213 2.0695 42.8108 2.33055 43.306C2.36536 43.3686 2.42337 43.4824 2.44657 43.4767C2.89327 43.3629 2.96288 43.8183 3.23554 43.9605C3.50819 44.1028 3.79245 44.2338 4.07671 44.3647C4.12892 44.4899 4.18113 44.6208 4.23334 44.7517C4.21594 44.7916 4.22754 44.8257 4.27395 44.8485C4.32036 44.9737 4.36677 45.1103 4.41318 45.2412C4.25075 45.4063 4.14053 45.56 4.31456 45.8503C4.5002 46.1576 4.56401 46.539 4.65683 46.8919C4.68584 47.0114 4.72065 47.1138 4.83087 47.148C4.9933 47.1992 5.09192 47.2334 4.9817 47.4383C4.90048 47.5977 4.94109 47.8424 4.83087 47.9676C4.55821 48.2693 4.91789 48.4343 4.94689 48.6677C4.95849 48.7872 5.15574 48.7759 5.23695 48.7133C5.4516 48.5482 5.62563 48.3433 5.83448 48.1782C6.03752 48.0188 5.92149 47.905 5.85768 47.7229C5.73005 47.3643 5.80547 46.9829 5.85768 46.6073C5.86348 46.5788 5.90409 46.556 5.92729 46.5276C5.9563 46.556 6.00271 46.5845 6.00271 46.613C6.02011 46.9146 6.32178 47.0285 6.4378 47.2561C6.49581 47.3643 6.21155 47.5407 6.4378 47.6033C6.78587 47.7001 6.9251 47.9335 7.03532 48.2294C7.16875 48.5766 7.29638 48.9239 7.45301 49.2597C7.62125 49.6296 7.81849 49.9939 8.00413 50.3582C8.05053 50.455 8.13755 50.5688 8.12595 50.6599C8.07374 51.0469 8.25938 51.3315 8.53783 51.5421C8.8337 51.7641 8.8337 52.043 8.82789 52.356C8.82209 52.5439 8.79309 52.7431 8.95552 52.8854C9.27459 53.1643 9.38481 53.5741 9.61106 53.9099C9.70968 54.0579 9.73288 53.8416 9.77349 53.7676C9.8025 53.7107 9.85471 53.6652 9.89531 53.6139C9.91852 53.6424 9.96493 53.6766 9.96493 53.705C9.95333 54.149 10.081 54.5873 9.8373 55.0255C9.66907 55.3272 9.77349 55.663 9.97073 55.9818C10.3014 56.5111 10.342 56.5908 10.8583 56.7615C11.2934 56.9038 11.3688 56.9835 11.3804 57.3763C11.392 57.7178 11.3514 58.065 11.6879 58.3041C11.7459 58.3439 11.8213 58.4236 11.8213 58.4862C11.8155 59.0155 12.2216 59.283 12.5465 59.5961C12.7901 59.8295 12.9874 60.1368 13.3586 60.2165C13.5269 60.5637 13.8285 60.8028 14.0606 61.0988C14.3158 61.4289 14.8321 61.4516 14.954 61.907C14.9714 61.981 15.0642 61.9582 15.1048 61.8615C15.1338 61.7932 15.128 61.7135 15.1628 61.6452C15.1744 61.6224 15.1918 61.5996 15.2034 61.5769C15.3833 61.7192 15.5863 61.8615 15.7835 61.9981C15.6443 61.8615 15.4819 61.6167 15.3136 61.4061C15.3194 61.389 15.331 61.3777 15.331 61.3606C15.3658 61.1784 15.2266 61.1215 15.0642 61.076C14.9656 61.0475 14.8379 60.9564 14.8031 60.8711C14.7799 60.8085 14.7451 60.7572 14.7161 60.7003C14.7335 60.7003 14.7567 60.706 14.7799 60.7117C14.7393 60.6605 14.7045 60.6377 14.6697 60.6149C14.4725 60.3133 14.1766 60.0913 13.9736 59.7953C13.8285 59.579 13.5791 59.3627 13.5791 59.1408C13.5733 58.8675 13.7763 58.5943 13.8865 58.3211C13.9271 58.2187 13.962 58.1162 14.0084 58.0138C14.02 57.9796 14.0548 57.9512 14.0838 57.9284C14.2114 57.843 14.1186 57.8885 14.1476 58.0138C14.2114 58.2984 14.368 58.3666 14.6291 58.361C14.8785 58.3553 14.8089 58.4748 14.7451 58.6342C14.6465 58.8903 14.9308 58.7651 15.0178 58.8448C15.1048 58.9188 15.1222 58.9928 15.012 59.0041C14.6407 59.0269 14.7451 59.2204 14.8321 59.4197C14.6407 59.5961 14.6349 59.8181 14.6929 60.0458C14.6987 60.0799 14.7277 60.1254 14.7567 60.1368C14.7799 60.1482 14.8263 60.1141 14.8495 60.0913C14.9308 60.0116 15.0526 59.9376 15.0758 59.8408C15.186 59.4083 15.4529 59.2432 15.8996 59.2432C16.0678 59.3286 16.236 59.3741 16.3695 59.3343C16.323 59.4367 16.2998 59.5335 16.3346 59.6416C16.3056 59.6246 16.2882 59.6132 16.2824 59.6075C16.3056 59.6359 16.3346 59.6587 16.3579 59.6872C16.3811 59.7384 16.4159 59.7839 16.4797 59.8352C16.5435 59.8864 16.5203 60.0002 16.4797 60.1027C16.4217 60.0628 16.3637 60.0173 16.294 59.9775C16.3811 59.7896 15.9924 59.3912 15.9692 59.6189C16.3637 59.6644 15.9576 59.8295 16.0388 59.9091C16.1722 59.9774 16.2824 60.1198 16.4043 60.2564C16.294 60.4897 16.2012 60.7231 16.12 60.9621C15.9924 61.3435 15.9982 61.7078 16.3811 61.9696C16.7407 62.2144 16.8336 62.5559 16.7639 62.96C16.7465 63.0681 16.7697 63.1877 16.7523 63.3015C16.7465 63.3527 16.7523 63.3983 16.7523 63.4438C16.6943 63.4324 16.6305 63.421 16.5609 63.3983C16.6305 63.4666 16.7001 63.5178 16.7697 63.5633C16.7755 63.5975 16.7871 63.6316 16.7987 63.6601C16.3404 63.4381 15.8706 63.0681 15.3949 62.6697C15.0236 62.351 14.6465 62.0208 14.2926 61.7135C13.9504 61.3947 13.6371 61.0874 13.3296 60.8711C13.4457 60.9735 12.9758 60.7402 12.8481 60.5125C12.8481 60.9052 13.5153 61.6053 13.6197 62.1461C13.8981 62.3965 14.0664 62.6071 14.1012 62.812C14.223 62.9031 14.3274 62.9657 14.4145 62.9828C14.2752 63.3812 16.004 64.4854 15.6617 64.5936C15.9692 64.7188 16.2476 64.7586 16.6653 65.0091C16.7581 64.9294 16.5841 64.8383 16.7175 64.7586C16.9322 64.8952 17.112 64.9749 17.2222 64.9464C16.7697 64.6505 16.5841 64.8212 16.1838 64.6049C16.3346 64.5025 16.1606 64.2976 15.975 64.2805C15.7661 64.3431 16.207 64.4797 16.1142 64.5537C15.9982 64.474 15.9924 64.6163 15.8415 64.4797C16.1374 64.3659 15.2266 64.0699 15.157 63.7568C15.2208 63.6885 15.2962 63.6601 15.4123 63.6999C15.8938 64.1268 15.7429 63.8138 16.0214 63.8934C16.2592 64.0301 16.1374 64.1382 16.2998 64.2691C16.4681 64.104 16.8684 64.3431 17.1526 64.5651C17.5529 64.7017 17.9706 64.7302 18.3593 64.7757C18.3825 64.7928 18.3999 64.8098 18.4231 64.8269C18.6435 65.0204 18.9046 65.1741 19.154 65.3392C19.212 65.379 19.2933 65.3449 19.2991 65.2481C19.3107 65.0261 19.4093 64.77 19.2468 64.5936C19.0264 64.3545 18.8582 64.0187 18.4289 64.0528C18.3361 64.0585 18.1968 63.9902 18.1388 63.9105C18.0576 63.7967 17.9822 63.6772 17.901 63.5633C17.9184 63.5519 17.9474 63.5406 17.9822 63.5349C17.9184 63.5064 17.872 63.4779 17.8256 63.4495C17.7037 63.2673 17.5877 63.0795 17.4659 62.8917C17.5819 62.5843 17.6863 62.2713 17.8198 61.9696C17.872 61.8615 17.901 61.7647 17.8662 61.6566C17.8546 61.6281 17.8024 61.5826 17.8024 61.5826C17.3789 61.9184 17.3092 61.4346 17.112 61.2866C16.9612 61.1784 16.9554 60.9963 16.967 60.8255C17.2164 60.7402 17.315 61.2126 17.5993 61.0988C17.6225 61.1215 17.6515 61.15 17.6805 61.1727C17.8372 61.3947 18.1098 61.6679 18.4173 61.8785C18.7363 62.1062 19.038 62.3054 19.183 62.4307C19.1598 62.3794 19.3281 62.3111 19.3861 62.3339C19.5427 62.5729 20.3723 62.6811 19.9836 62.738C20.2331 62.9088 20.3491 62.8291 20.4941 62.8063C19.8792 62.573 19.3977 62.1802 18.951 62.129C18.8756 61.8558 18.4869 61.685 18.1968 61.5029C18.0866 61.4289 17.988 61.3663 17.9126 61.298C17.959 61.2923 18.017 61.2638 18.0634 61.2467C18.0808 61.241 18.0924 61.1841 18.0808 61.1671C18.046 61.0988 17.9822 61.0475 17.959 60.9792C17.9242 60.8768 17.8894 60.7515 18.017 60.6832C18.1156 60.632 18.2258 60.6093 18.3361 60.6889C18.4231 60.7516 18.5159 60.7971 18.6087 60.8483C18.6203 60.9622 18.6029 61.0931 18.6609 61.1727C18.7131 61.2467 18.8466 61.2809 18.951 61.298C19.1076 61.3207 19.2643 61.3037 19.4151 61.3492C19.3397 61.3776 19.2585 61.3663 19.4441 61.4687C19.5137 61.4687 19.5949 61.4801 19.6761 61.5029C19.7051 61.52 19.7342 61.5256 19.7632 61.5313C20.1982 61.6793 20.7146 62.0607 21.0452 62.1176C20.8422 61.9867 20.6449 61.8671 20.4535 61.7419C20.5695 61.7476 20.6855 61.7476 20.8074 61.7419C20.8364 61.7419 20.8712 61.7021 20.8828 61.6736C20.8886 61.6622 20.8654 61.6167 20.848 61.6053C20.6855 61.4972 20.5173 61.5029 20.3549 61.6053C20.3375 61.6167 20.3317 61.6395 20.3201 61.6622C20.2098 61.5939 20.1054 61.52 20.001 61.4517C20.1054 61.3777 20.204 61.2923 20.3317 61.315C20.4651 61.3378 20.6043 61.3321 20.7436 61.3207C20.8654 61.4403 20.9988 61.5541 21.1496 61.6224C21.1903 61.4972 21.4223 61.7362 21.4397 61.5655C21.4571 61.5256 21.4455 61.4858 21.4223 61.446C21.6543 61.5655 21.8806 61.5484 22.1184 61.5427C22.3679 61.537 22.5245 61.5769 22.6173 61.8671C22.6638 62.0151 22.774 62.129 22.9248 62.1916C22.9016 62.277 22.9886 62.3794 23.0988 62.4819C22.8494 62.4705 22.7566 62.7039 22.4491 62.6071C22.5767 62.6754 22.6696 62.7437 22.687 62.8234C22.5883 62.8974 22.3737 62.7949 22.3041 62.9088C22.5883 62.9771 22.9016 63.1649 23.1859 63.421C23.2845 63.182 23.6964 63.4666 23.8124 63.5463C23.6732 63.6316 23.4585 63.5633 23.2787 63.4097C23.3251 63.6715 22.9712 63.3414 22.9654 63.5349C23.2323 63.7227 24.2185 63.5576 24.4389 64.0699C23.8066 63.7568 23.5977 63.9162 23.1743 63.8422C22.9596 64.0528 23.0292 64.2236 23.2033 64.3773L23.2555 64.252C23.4179 64.3033 23.4353 64.3716 23.5281 64.4285C23.4643 64.4456 23.4063 64.4683 23.4933 64.5196C23.4295 64.622 23.3947 64.4171 23.2207 64.3887C23.4411 64.5765 23.8066 64.7416 24.0154 64.9408C24.6884 65.1115 25.576 65.7149 26.1387 65.7319C25.9182 65.5953 25.3671 65.4929 25.3787 65.214C25.6166 65.0432 25.7906 65.4815 25.9414 65.305C25.6282 65.1286 25.4483 65.1855 25.3845 64.9578C25.4831 64.992 25.4831 64.9009 25.5644 64.918C25.8486 65.0774 26.1503 65.3278 26.0633 65.4473C26.0865 65.2937 26.2431 65.6409 26.3069 65.4815C26.2083 65.4018 26.2431 65.2937 26.2257 65.1969C25.8544 65.0831 25.634 64.9294 25.6282 64.7359C26.1155 64.696 26.4403 64.9351 26.8058 64.9692C26.8754 65.1058 26.9624 65.231 27.0727 65.3392C27.1713 65.4359 27.2757 65.4132 27.3859 65.3733C27.4788 65.3392 27.531 65.1969 27.6702 65.2823C27.8616 65.3961 28.0937 65.4701 28.2503 65.6181C28.6042 65.971 29.0161 66.21 29.486 66.3865C29.4918 66.3865 29.4918 66.3922 29.4918 66.3979C29.4802 66.415 29.4628 66.432 29.457 66.4548C29.0161 66.3865 28.7028 66.4946 28.2619 66.267C28.2793 66.3068 28.3141 66.3239 28.3431 66.3523C28.0647 66.2954 27.7804 66.2442 27.4904 66.193C27.2931 66.4889 27.821 66.1873 27.7978 66.432C27.6122 66.4776 27.0031 66.3466 26.9915 66.1417C27.1307 66.2044 27.2757 66.267 27.4091 66.3068C27.3685 66.1987 27.1829 66.1303 27.0205 66.062V66.0564C27.0147 66.0564 27.0031 66.0507 26.9973 66.0507C26.8986 66.0051 26.8058 65.9596 26.7652 65.8913C26.7072 65.9198 26.3185 65.8628 26.4925 65.9539C26.4984 65.9539 26.5158 65.9596 26.5216 65.9653C25.9414 65.8401 25.4019 65.6465 24.8856 65.4986C24.2301 65.2823 23.6036 65.1115 22.9538 65.1115C22.8262 64.844 22.5709 64.7415 22.3041 64.7188C21.6137 64.5196 21.08 64.1098 20.7204 63.7625C20.4999 64.0187 20.175 63.33 19.8502 63.3186C19.856 63.2446 19.8038 63.1991 19.9198 63.1934C19.2294 63.1478 19.183 62.4079 18.4579 62.1688C18.7363 62.3737 18.0576 62.2371 18.6087 62.5388C18.7595 62.499 18.5275 62.277 18.7131 62.3737C18.5391 62.6128 19.1482 62.9031 19.2352 63.2446C19.7632 63.2389 20.03 63.6999 20.5869 64.0187C20.5985 64.1268 20.5985 64.4569 20.848 64.4114C20.5347 64.2919 20.9814 64.2862 21.0336 64.2293C21.3353 64.3659 21.5789 64.5651 21.8284 64.7415C21.6543 64.7757 21.5093 64.8269 21.4281 64.8781C21.4977 64.9066 21.5615 64.9294 21.6311 64.9578C21.6253 65.0091 21.6369 65.0375 21.5383 65.1001C21.8632 65.3164 21.9444 65.1912 22.13 65.214C21.8922 65.4587 22.9538 65.7262 23.1569 65.9994C23.1801 65.897 23.2729 65.8913 23.4469 65.9539C23.3889 66.0051 23.3193 65.9938 23.3947 66.0905C24.9204 66.6085 26.3301 67.0069 27.7282 67.4167C28.2445 67.3826 29.6484 67.5704 29.486 68.0371C31.1857 68.5665 33.0073 68.6746 34.9159 68.834C35.5598 68.612 36.3488 68.7259 36.9347 68.7771C36.8477 68.7657 37.1087 68.6575 37.2712 68.7145C37.8745 68.908 36.8593 69.1015 36.3546 69.0787C36.7955 69.0731 36.3662 69.3975 36.2792 69.5113C35.3162 69.6024 34.533 69.5626 33.686 69.6479C33.4598 69.6195 33.4366 69.4942 33.1755 69.4772C32.7985 69.6479 32.4214 69.295 31.9805 69.2836C31.7252 69.2723 31.5164 69.4601 31.2669 69.4259C30.9827 69.3918 30.7564 69.1584 30.5186 69.1243C30.3736 69.1015 30.1125 69.1527 29.9907 69.1413C30.0023 69.1413 30.0661 69.056 30.0893 69.0617C29.834 69.0218 29.6832 69.1357 29.4628 69.1129C29.4222 69.1072 29.4222 68.9592 29.4047 68.9535C29.1147 68.8055 28.6912 68.9649 28.3547 68.9023C28.1401 68.7088 28.6854 68.7543 28.3199 68.6462C28.2619 68.7998 27.908 68.686 27.7572 68.76C27.5774 68.4413 26.8 68.5494 26.9682 68.316C26.6724 68.2819 26.2605 68.2534 25.866 68.1623C25.4773 68.0713 25.0945 67.9688 24.8392 67.8721C24.932 67.9119 24.903 67.9745 24.8798 68.0371C24.2591 67.8208 24.056 67.7525 23.6906 67.7241C23.708 67.6785 23.7776 67.6956 23.8066 67.6615C23.3367 67.5021 22.8958 67.3826 22.5187 67.2175C22.1416 67.0524 21.811 66.8931 21.5441 66.7394C21.4397 66.7621 21.3527 66.8134 21.2251 66.8077C21.0742 66.6028 21.0046 66.6256 20.8074 66.6654C20.6855 66.5117 20.8364 66.3637 20.5695 66.341C20.7842 66.5914 20.1866 66.341 20.0068 66.2897C20.0474 66.2044 19.8154 66.1304 19.9314 66.0393C19.9604 65.9311 20.1866 66.1019 20.2331 66.0222C19.7109 65.7889 19.6471 65.9198 19.5021 66.1076C19.6587 66.267 19.9778 66.4206 20.1576 66.58C20.4245 66.4036 21.2135 66.95 21.3585 67.1378C21.2541 67.0923 21.2541 67.1833 21.1612 67.1492C21.1728 67.0923 21.2309 67.0297 21.138 66.9784C20.5463 67.0354 20.1112 66.6483 19.4963 66.3182C19.5949 66.58 19.2759 66.3751 19.183 66.5402C19.8212 66.8418 20.4709 67.1321 21.0452 67.411C20.8306 67.2061 21.3411 67.3883 21.4455 67.3826C21.5731 67.5192 21.9792 67.855 22.1184 67.8493C22.0256 67.7981 22.0604 67.7412 22.0894 67.6786C22.3389 68.0485 22.8958 68.1339 23.3541 68.373C22.832 68.1567 23.035 68.3559 22.6289 68.2648C22.977 68.4583 23.1627 68.5949 23.4933 68.5209L23.4469 68.6576C23.8704 68.7259 24.3693 68.9364 24.8972 69.1584C25.1641 69.2666 25.4309 69.3861 25.7036 69.4772C25.982 69.5569 26.2605 69.6138 26.5332 69.6422C26.5332 69.6992 26.4867 69.7732 26.5854 69.8073C27.5426 69.8585 28.8246 70.5131 29.3235 70.3993C29.3293 70.5928 28.871 70.57 28.6796 70.4106C28.6738 70.7522 29.2365 70.6212 29.4686 70.6155C29.457 70.6155 29.4686 70.7123 29.4512 70.7123C29.8166 70.718 30.0081 70.5245 30.391 70.5586C30.8783 70.5985 30.9827 70.8717 31.6266 70.8774C31.4642 70.6269 32.2879 70.9514 32.5374 70.8546C32.0559 70.7806 32.3344 70.7578 32.723 70.7977C33.1117 70.8261 33.6222 70.866 33.6106 71.0311C33.3148 71.0026 33.2625 71.1221 33.0595 71.1449C33.5584 71.1506 33.3206 71.2075 33.4076 71.4067C33.8137 71.3726 33.8543 71.5092 34.1327 71.5376C34.0979 71.384 33.7324 71.384 33.599 71.2701C33.7208 71.2758 33.7963 71.2587 33.8717 71.236C34.0805 71.3043 34.2081 71.5547 34.4112 71.3555C34.3996 71.4409 34.4286 71.5092 34.4982 71.5547C33.7615 71.5775 33.2567 71.6002 32.7636 71.5832C32.2763 71.5319 31.8006 71.4409 31.1277 71.253C30.71 71.2701 30.2923 71.1677 29.8747 71.0766C29.4512 70.9855 29.0277 70.9172 28.581 70.9343C28.5868 70.8432 28.2909 70.8318 28.3431 70.7294C27.2003 70.5928 26.1329 69.8471 25.1467 69.9098C25.3903 70.0065 25.7558 70.052 25.7326 70.1886C25.4541 70.126 24.1837 69.8415 24.5666 69.6138C24.3519 69.5682 24.1489 69.5455 23.8588 69.4203C23.6616 69.5682 24.3055 69.5853 24.2475 69.7105C23.8472 69.5967 22.9364 69.3747 22.7392 69.0275C21.9444 68.7714 21.2831 68.4469 20.6855 68.168C20.0938 67.8778 19.5775 67.5818 19.1482 67.2289C18.9858 67.4281 19.0322 67.0524 18.864 66.9841C18.6319 66.9272 18.8292 67.2346 18.6725 67.1549C18.5913 67.1094 18.5623 67.1378 18.4927 67.1094C18.1678 66.9728 18.2664 66.8418 18.0866 66.7109C17.9242 66.7735 17.5587 66.5117 17.2512 66.341C17.3731 65.9881 16.6943 65.8571 16.3869 65.6579C15.7487 65.2766 15.099 64.7017 14.4493 64.1951C13.8169 63.6715 13.1846 63.2104 12.7437 62.8291C13.3586 63.5235 13.7067 63.5804 14.1824 64.2179C14.6755 64.4569 15.157 64.8269 15.6443 65.2197C16.1432 65.5953 16.6711 65.9596 17.1932 66.2499C17.1178 66.3467 17.2396 66.4491 17.228 66.5516C17.1004 66.5572 16.8916 66.4434 16.7581 66.4434C17.0134 66.7166 18.0054 66.9443 18.3825 67.4964C18.4985 67.3826 18.7189 67.6046 18.8988 67.707C19.3165 67.5419 20.5521 68.1453 21.0046 68.4185C20.9466 68.4925 20.2447 68.077 20.4651 68.2762C20.7146 68.39 20.9756 68.5039 20.9118 68.6405C20.7552 68.6006 20.4419 68.3616 20.3897 68.4526C20.6275 68.6405 21.2135 68.8112 20.9466 69.0275C21.2889 69.221 20.906 68.8055 21.2773 68.9649C21.2831 69.0104 21.3295 69.0503 21.4281 69.0844C21.4513 69.3406 21.1845 69.2324 21.0452 69.2836C21.3759 69.5739 21.4745 69.4032 21.5267 69.3406C21.7414 69.5796 21.2367 69.4089 21.4165 69.6081C21.7472 69.8528 22.1533 70.0008 22.3505 70.0691C22.2519 70.0236 22.2287 69.9667 22.2055 69.9155C22.3505 70.0008 22.6232 69.9154 22.6464 70.0748C22.5419 70.0464 22.3969 69.9781 22.3621 70.0236C22.8146 70.3253 23.6616 70.5017 23.8878 70.8205C24.1257 70.8375 23.7718 70.6269 24.0386 70.6668C24.5723 70.7749 24.4505 70.9855 24.787 71.1278C24.8566 71.0766 24.7522 70.8546 24.9436 70.9286C25.2511 71.0652 25.8428 71.088 25.721 71.2986C25.6166 71.31 25.0132 71.162 25.2337 71.2758C25.7732 71.3213 26.1097 71.5149 26.3823 71.3669C26.7362 71.5149 26.2547 71.6002 26.5912 71.7141C26.7246 71.7198 26.6492 71.5376 26.8174 71.5718C26.916 71.6856 27.85 72.1239 27.4381 71.8222C27.821 71.9588 27.8964 71.9702 28.4476 72.1068C28.4766 72.0385 28.4476 71.9247 28.5752 71.9361C29.3351 72.1808 30.0719 72.2548 30.7796 72.3516C31.4874 72.4313 32.1719 72.5223 32.8623 72.6475C32.9029 72.5679 32.7346 72.5166 32.8739 72.5052C33.396 72.6077 33.8253 72.6988 34.1849 72.5223C34.1849 72.5906 34.1385 72.6248 34.0863 72.6646C34.475 72.5963 34.9623 72.7215 35.3104 72.8126C35.0493 72.9947 34.5678 72.8126 34.4518 73.12C35.1131 73.12 35.4032 72.7329 36.1573 72.8411C36.285 72.7329 35.9137 72.6532 36.1515 72.6475C36.4358 72.7158 36.517 72.7045 36.7143 72.602C36.7143 72.7671 36.9927 72.7671 37.19 72.824C37.9267 72.6077 38.6751 72.898 39.3364 72.5622C39.7135 72.5679 40.1312 72.5735 40.5663 72.5394C41.0014 72.4882 41.448 72.4256 41.8831 72.3459C42.7591 72.1922 43.5829 71.9987 44.1514 71.8052C44.2616 71.9133 44.6735 71.7368 44.6677 71.9361C45.1492 71.6344 45.5147 71.8507 45.8337 71.5433C45.7177 71.5661 45.6133 71.5832 45.6249 71.4978C45.8338 71.401 45.857 71.4067 46.2456 71.2872C46.2746 71.3555 46.2804 71.4523 46.4719 71.3783C46.6749 71.0026 47.4871 71.105 47.9396 71.0311C47.9338 70.9343 47.783 70.9741 47.7075 70.9457C48.0556 70.8318 48.6763 70.5529 48.8446 70.7635C48.6357 70.8944 48.4617 70.6782 48.3863 70.8774C48.5139 70.8432 48.5255 70.94 48.6125 70.9514C49.4885 70.348 50.8402 69.9382 51.4783 69.7333C51.7046 69.6479 51.7394 69.4487 51.8438 69.4032C52.1106 69.2893 52.4181 69.3861 52.8416 69.0901C52.7662 69.1414 52.9634 69.0389 53.1781 68.9251C53.2651 68.8852 54.0947 68.3673 54.4079 68.4299C54.5065 68.5209 53.7814 68.8169 54.0599 68.7657C54.3557 68.6006 54.4311 68.4982 54.7386 68.4299C54.64 68.3388 54.727 68.2363 54.8604 68.168C54.988 68.0884 55.1679 68.0258 55.2665 68.0314C55.0519 68.2534 54.6806 68.4526 54.6458 68.6462C55.1447 68.3331 55.951 67.559 56.1193 67.9745C56.0961 67.9347 56.2295 67.8379 56.2817 67.8778C56.0149 68.1794 56.2005 68.1851 55.9742 68.4583C56.3919 67.9631 56.9024 67.7355 57.3897 67.485C57.8712 67.2289 58.3527 66.9898 58.608 66.4093C58.6834 66.4719 58.5848 66.5572 58.6486 66.6199C58.8923 66.4491 58.7762 66.341 59.1243 66.1474C59.1649 66.2328 59.2751 66.1702 59.3215 66.2442C59.5072 66.0848 59.7276 65.9141 59.7972 65.7718C59.4724 66.0393 59.2635 66.0677 59.1127 65.9767C59.6638 65.6579 59.774 65.305 60.389 65.1457C60.0583 65.3392 60.2555 65.4303 59.9191 65.6181C60.0641 65.6522 60.1395 65.8401 60.4122 65.6124C60.3774 65.5498 60.2729 65.4929 60.3658 65.4075C60.447 65.6067 61.5144 64.9294 61.9031 64.5651C61.8567 64.3659 61.6304 64.622 61.5608 64.474C61.6826 64.4399 61.8509 64.2919 62.0191 64.1325C61.9495 64.3488 61.9901 64.2976 62.1467 64.4114C62.4078 64.2407 62.1351 64.2065 62.3324 64.0528C62.4484 64.1951 62.7733 63.791 62.9299 63.8479C63.1271 63.4495 63.3128 63.4666 63.3534 63.5918C63.5274 63.2503 63.6666 63.1877 63.7479 62.9031C63.9335 62.8632 63.7885 62.9543 63.8871 63.0397C64.1539 62.7266 64.1365 62.7722 64.415 62.6185C64.4846 62.4819 64.4846 62.3623 64.5426 62.2144C64.7341 62.1574 64.8327 61.9525 64.7167 62.2428C65.5114 61.537 65.3258 60.9109 65.7493 60.6149C65.5114 60.3417 65.9117 60.1084 66.2424 59.9205C66.2424 59.7555 65.9349 59.9888 66.0915 59.801C66.3468 59.6701 66.4918 59.5107 66.6833 59.192C66.8573 59.2204 66.7123 59.4026 66.7645 59.488C66.8283 59.2717 67.0836 59.0895 67.0719 59.0098C66.9675 59.1009 66.8689 59.1464 66.7819 59.1464C66.9211 58.97 66.8863 58.8789 67.0894 58.6683L67.2054 58.7537C67.4722 57.9625 68.3366 57.2112 68.3598 56.8071C68.499 56.5396 68.5803 56.716 68.7079 56.5851C68.6557 56.5453 68.5919 56.5623 68.528 56.5851C68.5919 56.3517 69.4736 55.5947 68.9457 55.959C69.1952 55.5947 69.433 55.5776 69.4736 55.2874C69.346 55.4695 69.2474 55.4069 69.346 55.2134C69.3402 55.3613 69.4446 55.35 69.5723 55.128C69.5491 55.0085 69.6303 54.8263 69.6883 54.6556C69.6709 54.9345 69.99 54.3311 70.019 54.1945C69.9725 54.2514 69.9203 54.3539 69.8797 54.3311C69.9609 54.1604 70.1292 53.6823 70.3148 53.6083C70.3438 53.688 70.135 53.9213 70.2104 53.9782C70.4482 53.7449 70.367 53.5855 70.5063 53.2895C70.8485 53.3009 70.7267 52.3617 71.1038 52.4357C70.8485 52.7317 70.8195 53.0618 70.7615 53.3407C70.6977 53.614 70.6281 53.8473 70.3438 53.9498C70.5817 54.0921 70.2684 54.2856 70.1292 54.6897C70.3206 54.6726 70.1582 54.8718 70.2046 54.9458C70.4656 54.5873 70.2974 54.6897 70.3148 54.5759C70.4076 54.5246 70.5063 54.2856 70.5933 54.3994C70.5411 54.4962 70.4482 54.6271 70.4889 54.6669C70.6571 54.3084 70.8137 54.1661 70.9588 54.1604C71.0342 53.9156 71.1502 53.7392 71.301 53.5001C71.4402 53.2497 71.6085 52.9423 71.8115 52.4528C71.8115 52.2593 71.6143 52.5097 71.7187 52.2024C72.4555 51.1721 72.5715 49.9996 72.9776 49.1344C72.9021 48.9011 72.6527 49.2028 72.7977 48.7702C72.9428 48.5767 73.0182 48.6677 73.111 48.7759C73.227 47.8993 73.6969 47.4667 73.958 46.5617C73.6679 46.0836 74.3873 44.9282 74.2016 44.2907C74.161 44.7289 74.0218 45.2754 73.8013 45.4461C73.7201 45.0648 73.929 43.9947 74.2248 44.1939C74.1784 43.6646 74.6483 43.306 74.3931 43.084C74.7469 43.0442 74.9094 41.9855 74.892 41.3651C74.892 41.4561 74.9674 41.2341 74.9964 41.0008C75.0718 40.3861 75.1762 39.6973 75.2516 39.02C75.2806 38.4907 75.2748 37.9613 75.2284 37.4775C75.2806 37.4775 75.3387 37.4832 75.4083 37.506C75.3677 36.9254 75.3271 36.3505 75.2864 35.7813C75.298 35.7927 75.3097 35.7984 75.3387 35.787C75.2574 35.5024 75.2807 35.4 75.24 35.1325C75.2226 34.9389 75.211 34.7511 75.1936 34.5576C75.2923 34.3185 75.3677 33.8859 75.3909 33.6412C75.4025 33.8233 75.5301 33.7493 75.5069 34.0055C75.4373 34.4153 75.4663 34.9219 75.6519 35.2178C75.6171 35.4114 75.5707 35.4171 75.5011 35.3146C75.6229 36.4074 75.4663 37.2214 75.6751 38.2231C75.5069 37.9727 75.5011 39.1395 75.6867 38.8834C75.5475 39.5152 75.4025 40.3234 75.3271 41.126C75.2864 41.5301 75.2574 41.9286 75.2516 42.3042C75.2458 42.492 75.2458 42.6742 75.2516 42.8449C75.2458 43.0157 75.2458 43.1751 75.2516 43.3288C75.3155 42.862 75.5939 42.0424 75.4605 41.6269C75.6403 41.8716 75.5591 41.2171 75.4837 41.1488L75.6287 41.1658C75.942 39.1395 75.9768 36.988 76 34.9105ZM62.1235 8.59131C62.2918 8.51162 62.3962 8.76206 62.46 8.89297C62.3672 8.96128 62.1467 8.65392 62.1235 8.59131ZM21.4339 67.1833C21.4513 66.9329 21.8574 67.2972 21.8922 67.2346C22.101 67.4224 21.6427 67.3143 21.4339 67.1833ZM24.2475 68.8055C24.3693 68.5551 24.5201 68.8852 24.8566 68.9649C24.787 69.056 24.4331 68.8397 24.2475 68.8055ZM24.9552 68.077C24.9958 67.9518 25.3787 68.0997 25.4657 68.2022C25.4193 68.299 25.1061 68.0997 24.9552 68.077ZM31.0291 70.5245C31.1103 70.496 31.2379 70.5017 31.3888 70.5245C31.3714 70.5928 31.3598 70.6611 31.4584 70.6839C31.383 70.7806 30.9073 70.6497 31.0291 70.5245ZM33.8717 71.0595C33.8137 70.9229 34.0573 70.9684 34.0573 70.8774C33.3496 70.7066 32.6128 70.8091 32.3866 70.4163C32.9957 70.5871 33.2451 70.4505 33.7208 70.3765C33.8369 70.4277 33.8891 70.5131 34.0689 70.5359C33.9297 70.644 33.8485 70.5985 33.6222 70.5643C33.686 70.7521 33.9239 70.8603 34.3242 70.8888C34.388 71.0709 34.1791 71.0937 33.8717 71.0595ZM72.2872 44.3305C72.3974 44.3419 72.2292 44.6436 72.2234 44.7745C72.1944 44.7289 72.1654 44.6777 72.1538 44.6094C72.1886 44.5297 72.2234 44.4557 72.2524 44.3761C72.264 44.3761 72.2756 44.3647 72.2872 44.3305ZM71.4983 50.5631C71.301 50.8875 71.3532 50.8477 71.1792 51.2347C71.0342 51.3429 70.8833 51.1892 71.0748 50.8876C71.2198 51.2575 71.2256 50.5062 71.4983 50.5631ZM47.7017 68.4469C47.6785 68.5665 47.2492 68.6462 47.052 68.7145C47.1274 68.4526 47.3537 68.5551 47.7017 68.4469ZM43.1014 70.4619C42.6025 70.5074 42.3704 70.4391 41.8135 70.422C42.0688 70.1659 42.5967 70.2797 43.1188 70.1147C43.113 70.2342 43.0144 70.3196 43.1014 70.4619ZM40.3748 70.496C40.3052 70.6611 40.0732 70.5017 40.0151 70.4789C39.9745 70.3708 40.2646 70.4106 40.2588 70.3139C40.5721 70.2854 40.0674 70.5302 40.3748 70.496ZM41.448 70.4334C41.4074 70.5529 41.1754 70.6042 41.1348 70.7237C40.9955 70.5985 40.369 70.8318 40.3052 70.6497C40.7171 70.7351 40.9839 70.3993 41.448 70.4334ZM40.7867 69.7447C40.5024 69.813 40.2472 69.9041 39.7773 69.9667C39.5743 69.7219 39.9803 69.6309 40.4908 69.5056C41.0013 69.3918 41.6279 69.3121 41.8715 69.2438C42.2544 69.3121 42.3588 69.4943 41.8541 69.6366C41.8657 69.5967 41.9353 69.5739 41.9237 69.5284C41.3726 69.6138 41.071 69.6764 40.7867 69.7447ZM39.9339 70.5359C39.29 70.7009 37.7875 70.7066 38.1472 70.4562C38.6055 70.6326 39.1914 70.3879 39.9339 70.5359ZM42.3414 69.4146C42.2892 69.295 42.4981 69.2609 42.6547 69.2153C42.6779 69.3406 42.5097 69.4772 42.3414 69.4146ZM42.997 67.9518C42.3994 68.0371 41.7961 68.0941 41.332 68.1567C41.129 68.2364 41.4364 68.3559 41.6163 68.3103C41.5583 68.4583 41.2624 68.3502 41.1174 68.39C41.0942 68.3047 41.2044 68.2762 41.1696 68.1851C41.1174 68.0827 40.7577 68.2307 40.5837 68.225C41.1116 67.9062 41.6627 67.7924 42.3008 67.7184C42.6199 67.6842 42.9622 67.6501 43.3218 67.6102C43.6815 67.5533 44.0644 67.4623 44.4821 67.3484C44.4937 67.4167 44.5053 67.485 44.6039 67.4679C44.3893 67.5761 44.1398 67.6729 43.8671 67.7582C43.7337 67.8038 43.5887 67.8436 43.4437 67.8778C43.2928 67.9005 43.1478 67.929 42.997 67.9518ZM23.2671 62.2144C23.3019 62.2087 23.3425 62.2144 23.3773 62.2314C23.3715 62.2428 23.3773 62.2542 23.3657 62.2656C23.2555 62.2428 23.2033 62.2314 23.1743 62.2144C23.2091 62.2144 23.2381 62.2201 23.2671 62.2144ZM18.6087 60.2734C18.5855 60.2962 18.5565 60.319 18.5333 60.3417C18.5101 60.3303 18.4869 60.319 18.4637 60.3076C18.4753 60.2905 18.4869 60.2734 18.4985 60.2564C18.5101 60.2393 18.5217 60.2222 18.5333 60.2051C18.5565 60.2279 18.5797 60.2507 18.6087 60.2734ZM33.4598 7.09434C33.396 7.15695 33.2974 7.19111 33.1465 7.20249C33.1233 7.20249 33.1001 7.20249 33.0769 7.20249C33.0131 7.17972 32.9087 7.1968 32.8043 7.20819C33.0131 7.10004 33.2335 7.07727 33.4598 7.09434ZM73.9 26.1621C73.9638 26.3727 73.9116 26.4638 73.8536 26.5491C73.7839 26.293 73.7665 26.0255 73.6853 25.7694C73.6911 25.7181 73.6969 25.6726 73.7085 25.6384C73.871 26.1735 73.6563 26.1279 73.9 26.1621ZM74.0218 26.6117C74.0508 26.7768 74.0798 26.8963 74.103 27.0045C74.0914 26.9988 74.0856 26.9931 74.0682 26.9931C74.0334 26.9476 74.0044 26.902 73.9812 26.8565C73.9348 26.7085 73.9 26.5776 74.0218 26.6117ZM73.7027 38.6614C73.7143 38.5362 73.6911 38.4622 73.6505 38.4167C73.6679 38.2061 73.6969 38.0069 73.7433 37.8589C73.7781 37.9158 73.8071 37.9784 73.8361 38.041C73.8477 37.9556 73.8129 37.8304 73.8013 37.7166C73.8071 37.7052 73.8129 37.6881 73.8187 37.6767C73.8129 37.654 73.8071 37.6255 73.8013 37.597C73.8071 37.5572 73.8245 37.523 73.8594 37.5003C73.871 37.671 73.9928 37.6653 73.9348 37.9556C73.6041 38.3028 73.8245 38.1093 73.7027 38.6614ZM43.2174 7.58384C43.1594 7.59523 43.1304 7.57816 43.113 7.55539C43.1478 7.54401 43.1884 7.53831 43.229 7.52693C43.229 7.55539 43.2232 7.58384 43.2174 7.58384ZM66.8631 16.7819C66.7123 16.7705 66.5846 16.7307 66.573 16.5485C66.573 16.5428 66.573 16.5428 66.573 16.5372C66.6717 16.6111 66.7703 16.6908 66.8631 16.7819ZM73.6099 35.8781C73.5983 35.7358 73.5867 35.5878 73.5751 35.4398C73.5809 35.4284 73.5867 35.4171 73.5867 35.4057C73.6215 35.2975 73.7201 35.2065 73.8129 35.1154C73.8129 35.2634 73.8129 35.4171 73.8187 35.565C73.8303 35.8952 73.8536 36.2139 73.9058 36.5156C73.8303 36.5213 73.7375 36.5042 73.7491 36.692C73.8245 36.7091 73.9348 36.6636 73.9406 36.7831C73.9058 37.0506 73.8477 37.2669 73.7607 37.4377C73.6621 36.9994 73.6331 36.453 73.6099 35.8781ZM73.7897 34.6031C73.7897 34.6259 73.7897 34.6544 73.7955 34.6771C73.7839 34.6487 73.7839 34.6259 73.7897 34.6031ZM68.9747 19.0245C68.8645 18.9107 68.8877 18.7513 69.0269 18.6431C69.0386 18.6374 69.0502 18.6318 69.0676 18.6318C69.23 18.8253 69.3808 19.0473 69.5259 19.2977C69.317 19.3375 69.201 19.2636 68.9747 19.0245ZM68.8123 18.3642C68.6441 18.3187 68.5338 18.2106 68.4758 18.0455C68.5919 18.1423 68.7021 18.2447 68.8123 18.3642ZM73.6447 38.4964C73.6621 38.6045 73.6563 38.724 73.6331 38.8436C73.6331 38.7297 73.6331 38.6102 73.6447 38.4964ZM74.7411 30.1236C74.7643 30.0553 74.7992 29.9813 74.8398 29.913C74.8456 30.0667 74.8224 30.1976 74.7585 30.2488C74.7527 30.209 74.7469 30.1635 74.7411 30.1236ZM74.6251 29.23C74.6251 29.2015 74.6251 29.1617 74.6309 29.1389C74.6657 29.1788 74.6947 29.2414 74.7237 29.3211C74.6947 29.2983 74.6599 29.2698 74.6251 29.23ZM74.3293 28.251C74.2074 28.5128 74.3815 28.8259 74.4685 28.7917C74.4569 28.9113 74.4221 28.9511 74.3815 28.9568C74.3409 28.9056 74.3002 28.8543 74.2654 28.8031C74.2538 28.769 74.248 28.7348 74.2422 28.7007C74.1958 28.6437 74.1436 28.5925 74.0914 28.547C74.0624 28.4958 74.0334 28.4502 74.0218 28.4218C73.9812 28.325 74.0972 28.1941 74.219 28.2112C74.248 28.2169 74.2828 28.2225 74.3118 28.2339C74.3235 28.2396 74.3234 28.2453 74.3293 28.251ZM73.6389 25.6498C73.6331 25.6441 73.6331 25.6327 73.6273 25.6214C73.6099 25.5815 73.6099 25.5531 73.6157 25.5189C73.6273 25.5644 73.6331 25.61 73.6389 25.6498ZM34.0225 7.21388C33.9645 7.20818 33.9181 7.1968 33.8717 7.17403C33.9181 7.18541 33.9703 7.1968 34.0225 7.21388ZM45.8047 68.5494C45.8744 68.7543 45.5437 68.5949 45.3116 68.7259C45.3929 68.5836 45.5785 68.5722 45.8047 68.5494ZM64.8095 59.6075C64.9023 59.7668 64.5542 59.875 64.3512 60.1824C64.2932 60.1197 64.1946 60.1994 64.1423 60.1254C64.3744 59.9319 64.6064 59.7213 64.8095 59.6075ZM65.262 59.0326C65.3084 59.0838 65.3606 59.1294 65.436 59.0554C65.5462 59.1464 65.1808 59.5164 65.0473 59.5619C64.9835 59.4424 65.0647 59.2603 65.262 59.0326ZM72.4439 43.8922C72.4613 43.9036 72.4787 43.9093 72.4961 43.9207C72.4381 44.0516 72.4148 44.063 72.3858 44.0459C72.4032 43.989 72.4265 43.9435 72.4439 43.8922ZM73.5113 40.2722C73.5055 40.1982 73.4997 40.1299 73.4881 40.0673C73.5171 40.0389 73.5461 40.0161 73.5751 40.0047C73.5693 40.0901 73.5461 40.1812 73.5113 40.2722ZM73.6911 39.6916C73.6737 39.5778 73.6563 39.4298 73.6447 39.2704C73.6737 39.1395 73.7085 39.02 73.7839 38.8493C73.7607 39.2534 73.7201 39.3843 73.7375 39.6803C73.7259 39.686 73.7085 39.6916 73.6911 39.6916ZM74.863 31.7913C74.9094 31.5694 74.9268 31.3474 74.8862 31.0742C75.1588 31.1823 75.0428 31.8198 74.9036 32.0475C74.892 31.9621 74.8746 31.8767 74.863 31.7913ZM74.7875 30.431C74.8746 30.5334 74.9268 30.7327 74.9674 30.966C74.7934 31.0742 74.7353 30.579 74.7875 30.431ZM74.0914 25.9173L73.9 25.9686C73.8303 25.8149 73.9406 25.5588 73.7781 25.5189C73.7433 25.2059 73.9 25.5929 73.9464 25.5701C73.9696 25.4506 73.9058 25.3823 73.8245 25.2912C73.8594 25.2628 73.8884 25.2343 73.9174 25.2059C74.0392 25.3937 74.1262 25.6271 74.0914 25.9173ZM73.7143 24.3692C73.6505 24.3635 73.6157 24.1984 73.5809 24.0675C73.5867 24.0675 73.5925 24.0675 73.5983 24.0675C73.6447 24.0618 73.6853 24.0276 73.7143 23.9878C73.8361 24.2439 73.6969 24.2212 73.7143 24.3692ZM72.9196 23.4698C72.937 23.4585 72.9834 23.4641 73.0066 23.4812C73.1748 23.5894 73.285 23.726 73.3256 23.9309C73.343 24.0276 73.4243 24.0618 73.5171 24.0675C73.5345 24.1415 73.5461 24.2212 73.5461 24.3236C73.4997 24.335 73.5113 24.4147 73.4765 24.4432C73.3546 24.0276 73.1226 24.1699 73.4069 24.3692C73.4185 24.4261 73.4301 24.483 73.4417 24.5399C73.285 24.5342 73.1284 24.5342 72.9718 24.5171C72.9254 24.5114 72.8557 24.3976 72.8673 24.3464C72.9021 24.2098 73.0298 24.0732 73.0124 23.9593C72.9892 23.8284 72.8209 23.7317 72.8557 23.5609C72.8557 23.5268 72.8848 23.4926 72.9196 23.4698ZM71.2604 20.4588C71.2024 20.4304 71.1444 20.4076 71.0864 20.4361C71.0516 20.3507 71.011 20.2824 70.9762 20.2198C70.9646 20.1629 70.9588 20.1003 70.9588 20.0433C71.0516 20.1686 71.1618 20.3222 71.2604 20.4588ZM64.9487 11.9666C64.9835 12.0064 65.0241 12.052 65.0589 12.0918C65.0531 12.1032 65.0473 12.1203 65.0357 12.1316C64.8327 12.0918 64.7341 11.83 64.6122 11.5795C64.7225 11.7104 64.8327 11.8414 64.9487 11.9666ZM61.584 10.9136C61.6014 10.925 61.613 10.9477 61.6246 10.9705C61.584 10.9534 61.5434 10.9364 61.5028 10.925C61.5202 10.9022 61.5492 10.8908 61.584 10.9136ZM32.1313 7.29925C32.1313 7.33909 32.1313 7.37894 32.1371 7.41309C32.2299 7.41309 32.288 7.36186 32.3228 7.29356C32.4794 7.29356 32.636 7.29926 32.7985 7.30495C32.7404 7.43017 32.6244 7.50985 32.5142 7.58384C32.3286 7.70337 32.1951 7.63507 32.1313 7.43586C32.0675 7.45863 31.9979 7.4757 31.9341 7.50416C31.6266 7.65784 31.5164 7.65215 31.354 7.44724C31.3482 7.44155 31.3424 7.43016 31.3366 7.42447C31.5976 7.33909 31.8587 7.31063 32.1313 7.29925ZM29.863 7.65215C30.1299 7.60093 30.3852 7.57815 30.6172 7.57815C30.5592 7.62938 30.4838 7.66353 30.3619 7.65784C30.2865 7.65784 30.1821 7.65784 30.1473 7.70338C29.8863 8.02781 29.4686 7.76029 29.1785 7.9652C28.9755 8.10749 28.8594 8.0335 28.7608 7.92536C29.1321 7.80014 29.5092 7.71476 29.863 7.65215ZM10.5741 53.4546C10.5392 53.4489 10.5102 53.3407 10.516 53.2838C10.5218 53.2554 10.5392 53.2269 10.5567 53.1984C10.5741 53.17 10.5973 53.1472 10.6147 53.1188C10.6437 53.1757 10.6901 53.2269 10.7017 53.2838C10.7191 53.3749 10.7075 53.483 10.5741 53.4546ZM11.6357 56.3176C11.6241 56.3688 11.5545 56.403 11.5139 56.4485C11.4906 56.42 11.4442 56.3973 11.4442 56.3688C11.4326 56.2664 11.4326 56.1639 11.4268 56.0615C11.421 56.0615 11.4152 56.0615 11.4094 56.0615C11.4094 56.0558 11.4094 56.0444 11.4094 56.0387C11.3572 56.0159 11.305 55.9931 11.2586 55.9647C11.247 55.959 11.2644 55.8907 11.2702 55.8907C11.3978 55.8736 11.4036 55.9533 11.4094 56.0387C11.4152 56.0387 11.421 56.0444 11.4268 56.0444C11.4268 56.0501 11.4268 56.0558 11.4268 56.0615C11.5951 56.0615 11.6821 56.1468 11.6357 56.3176ZM12.3376 56.9437C12.2796 56.9095 12.2216 56.8754 12.1578 56.8412C12.2216 56.8071 12.2854 56.7502 12.3492 56.7559C12.413 56.7559 12.471 56.8185 12.5349 56.8583C12.471 56.8811 12.4014 56.9152 12.3376 56.9437ZM12.8075 57.4332C12.8017 57.5186 12.7959 57.6039 12.6625 57.5812C12.6567 57.5812 12.6393 57.5129 12.6509 57.5072C12.6973 57.4787 12.7495 57.456 12.8075 57.4332C12.8075 57.4275 12.8075 57.4161 12.8075 57.4104C12.8133 57.4104 12.8191 57.4104 12.8249 57.4104C12.8191 57.2738 12.8017 57.1372 12.9177 57.0291C12.9874 56.9665 13.2136 56.9665 13.2078 57.0291C13.202 57.086 13.1846 57.1543 13.1498 57.1941C13.0628 57.2966 12.9874 57.4218 12.8191 57.4104C12.8191 57.4161 12.8191 57.4218 12.8191 57.4275C12.8191 57.4275 12.8133 57.4332 12.8075 57.4332ZM13.7241 57.6438C13.5617 58.0081 13.2194 58.287 13.1846 58.7195C13.1846 58.7423 13.0454 58.7765 12.9874 58.7594C12.9293 58.7423 12.8423 58.6569 12.8481 58.6171C12.9583 58.1902 13.1498 57.7918 13.4224 57.4389C13.4457 57.4104 13.5675 57.4389 13.6371 57.456C13.6371 57.456 13.6371 57.456 13.6429 57.456C13.6603 57.473 13.6777 57.4901 13.7009 57.5072C13.7067 57.5186 13.7125 57.5243 13.7241 57.5299C13.7183 57.5755 13.7415 57.6153 13.7241 57.6438ZM17.199 60.4727C17.1584 60.558 17.1004 60.5922 17.0134 60.5637C17.0366 60.4897 17.083 60.4271 17.199 60.41C17.3963 60.3816 17.4833 60.5011 17.4601 60.6719C17.4601 60.6946 17.4659 60.706 17.4659 60.7231C17.4021 60.6605 17.3267 60.5808 17.199 60.4727ZM18.6493 60.8255C18.6493 60.8312 18.6435 60.8426 18.6435 60.8483L18.6261 60.8312C18.6319 60.8312 18.6377 60.8312 18.6493 60.8255C18.6551 60.8085 18.6609 60.7914 18.6667 60.7743C18.6841 60.7857 18.7015 60.7914 18.7131 60.8028C18.6899 60.8142 18.6667 60.8199 18.6493 60.8255ZM26.4867 66.8248C25.7674 66.5003 25.0655 66.1759 24.2127 66.0222C23.9342 65.897 23.6616 65.7205 23.3657 65.5384C23.3367 65.5156 23.3019 65.4929 23.2671 65.4758C23.4005 65.5042 23.5339 65.5327 23.6616 65.5612C23.9806 65.6295 24.2881 65.6978 24.5956 65.7888C24.9088 65.8685 25.2337 65.971 25.5818 66.1247C26.1677 65.8685 26.9973 66.8874 27.5542 66.8134C27.3337 66.4662 28.2735 66.7508 28.813 66.8134C28.726 66.9671 28.7898 67.1663 28.8246 67.4452C27.9661 67.3598 27.2235 67.0923 26.4867 66.8248ZM37.3408 68.612C37.5148 68.5039 37.6193 68.7259 37.9325 68.6746C37.9267 68.6291 37.8281 68.6462 37.7585 68.6348C37.7759 68.5665 38.0079 68.6063 38.0021 68.5266C37.9035 68.4242 37.4742 68.538 37.248 68.5209C37.5902 68.2819 38.443 68.299 38.7215 68.1453C38.8607 68.242 38.8027 68.4014 38.7505 68.4356C38.8433 68.5949 38.9361 68.4299 39.0928 68.5096C39.319 68.4299 38.8201 68.4299 38.9013 68.2819C39.5394 68.2364 39.6903 68.2876 39.9687 68.1168C40.2414 68.1567 39.9687 68.2022 40.4676 68.094C40.5547 68.4185 39.9455 68.2534 39.7483 68.373C40.0558 68.5779 40.7983 68.0485 40.8505 68.3786C40.5895 68.4071 40.3168 68.464 40.0325 68.5209C39.7483 68.5608 39.4524 68.6063 39.1508 68.6462C38.5532 68.7202 37.9267 68.76 37.3408 68.612ZM37.5322 70.5814C37.451 70.7294 37.7353 70.6554 37.8919 70.6611C37.6018 70.7408 37.1261 70.7635 36.5982 70.7806C36.0645 70.7635 35.4786 70.7351 34.9565 70.7692C35.583 70.4106 36.5924 70.7521 37.5322 70.5814ZM34.6896 70.9001C35.1943 70.9798 35.3162 70.9457 35.8557 70.9912C35.351 70.7465 36.9753 70.8717 37.1087 70.9855C36.6853 71.1221 36.1864 71.0937 35.7165 71.0652C35.2466 71.0424 34.8115 71.0197 34.504 71.1335C34.4286 70.9798 34.649 70.9912 34.6896 70.9001ZM34.4054 71.327C34.4808 71.162 34.7245 71.2872 34.8579 71.3441C34.8347 71.458 34.4576 71.3555 34.4054 71.327ZM40.5257 71.5945L40.5024 71.4409C40.4618 71.4522 40.4212 71.4579 40.3806 71.4693C40.1834 71.5035 39.9803 71.5263 39.7657 71.5547C39.3422 71.6059 38.8955 71.6515 38.443 71.6799C37.5322 71.7312 36.5692 71.7767 35.67 71.6116C35.5714 71.623 35.6062 71.7084 35.4902 71.7027C35.2756 71.6799 35.1131 71.6287 34.9449 71.5832C34.9681 71.4352 35.3974 71.5206 35.6759 71.5149C35.6817 71.4466 35.6875 71.3783 35.583 71.3669C36.4648 71.3441 38.0601 71.3498 39.3596 71.0026C39.6555 71.0367 39.9397 71.0766 40.108 71.1904C40.369 71.1335 40.0325 71.0424 40.079 70.9514C40.3052 70.9058 40.5141 71.0937 40.6243 70.94C40.8911 70.9457 40.7345 70.9969 40.7403 71.1164C41.187 70.9798 41.5061 70.8717 41.8019 70.8603C41.8657 70.6895 41.5119 70.8318 41.3378 70.8318C41.5931 70.6212 42.2254 70.5871 42.4981 70.6497C42.6025 70.8205 42.1384 71.0311 42.6547 70.9684C42.2892 71.2018 41.1986 71.0311 41.042 71.2701C41.7497 71.2872 42.9331 70.9229 43.3508 71.1506C42.4168 71.5262 41.5525 71.3782 40.5257 71.5945ZM44.6735 70.4391C44.6619 70.3537 44.5401 70.3651 44.5401 70.274C44.8766 70.1374 44.8417 70.348 45.1782 70.2114C45.1086 70.3082 44.8185 70.3594 44.6735 70.4391ZM47.0578 69.5626C45.9846 69.7276 45.0622 70.0008 43.9658 70.2171C44.0006 70.3025 44.2674 70.1716 44.337 70.2228C44.3602 70.3708 43.8207 70.4448 43.7975 70.2968C43.5713 70.4334 43.5597 70.4789 43.6931 70.6554C43.287 70.5529 43.2058 70.4277 43.345 70.3196C43.4901 70.2057 43.8613 70.1203 44.3718 70.0122C44.279 69.961 44.076 70.0122 43.9136 70.0293C43.8381 69.8927 44.3022 69.8927 44.3138 69.7789C44.4357 69.7618 44.4183 69.8813 44.4473 69.9439C45.2768 69.6821 45.3348 69.6422 46.2398 69.3804C46.4081 69.5227 46.6749 69.2666 46.907 69.4032C47.1274 69.3007 46.6111 69.369 46.8432 69.221C47.4639 69.0958 47.4465 69.2324 48.0614 68.9308C48.0266 68.7998 47.5335 69.1812 47.5915 68.9478C48.0034 68.8795 48.2935 68.7315 48.5777 68.538C48.6473 68.6348 48.6299 68.7145 48.5835 68.7942C48.8098 68.7259 48.833 68.6291 48.7634 68.5209C49.1694 68.316 49.3087 68.4128 49.5059 68.4526C49.1984 68.9421 47.5567 69.1869 47.0578 69.5626ZM55.1157 67.4338C55.1041 67.1833 55.4695 67.1606 55.6726 66.9329C55.748 67.0809 55.2839 67.2687 55.1157 67.4338ZM57.6798 66.8988C57.529 67.2516 57.5406 66.8305 57.3027 67.0183C57.2911 66.95 57.4826 66.8589 57.5986 66.7792C57.6334 66.8418 57.6624 66.8988 57.761 66.8475C57.7726 66.9044 57.6914 66.9215 57.6798 66.8988ZM57.3839 66.1702L57.6972 65.9767L57.7842 66.0962C57.6218 66.1702 57.4361 66.2897 57.3839 66.1702ZM57.7494 65.8856C57.6856 65.7831 57.9409 65.6295 58.1381 65.4815L58.2251 65.5953C58.0453 65.7376 57.8712 65.8685 57.7494 65.8856ZM57.616 65.6523C57.1287 65.9824 56.6298 66.2897 56.3803 66.5003C56.4093 66.3011 56.827 65.9938 57.3259 65.6579C57.819 65.3164 58.3701 64.9066 58.7356 64.6106C58.5384 64.9123 58.0859 65.2937 57.616 65.6523ZM61.0677 64.9294C60.8995 64.8212 60.8705 64.8269 60.9169 64.6163C61.0967 64.6049 61.381 64.6846 61.0677 64.9294ZM61.3462 64.531C61.2649 64.531 61.1431 64.6277 61.0967 64.5366C61.1837 64.5082 61.2707 64.4797 61.2475 64.4228C61.3346 64.3659 61.3578 64.4513 61.4564 64.3716C61.4448 64.4342 61.4332 64.4968 61.4796 64.5423C61.3926 64.6049 61.2417 64.6277 61.3462 64.531ZM62.6804 63.8707C62.6572 63.8024 62.8313 63.6829 62.9299 63.5804C62.8777 63.5519 62.7733 63.6658 62.6804 63.7398C62.5528 63.7341 62.7791 63.4324 62.547 63.5975C62.5644 63.4836 62.9415 63.4552 63.0691 63.4495C62.8313 63.6885 62.9879 63.7056 62.6804 63.8707ZM64.357 61.0418L64.4672 61.1386L64.1481 61.4801C64.0205 61.4061 64.2816 61.1898 64.357 61.0418ZM64.8791 61.6281C64.9371 61.4061 64.7863 61.5769 64.6122 61.7704C64.5426 61.5541 65.0299 61.3663 65.2272 61.1727C65.3026 61.2581 64.9719 61.4858 64.8791 61.6281ZM65.1633 60.3816C65.0995 60.7914 64.9893 61.1671 64.357 61.5427C64.4208 61.2752 65.0009 60.9052 64.7979 60.5637C65.3838 60.0401 65.7435 59.5221 66.0625 59.3115C66.0567 59.6872 65.5288 60.2393 65.1633 60.3816ZM66.8399 58.4919C66.515 58.8505 66.3352 58.9358 66.2018 59.3001L66.0103 59.1521C66.3932 58.8049 66.6891 58.1959 67.1358 57.7861C67.1358 58.0593 66.7587 58.2357 66.8399 58.4919ZM70.7035 52.5553C70.5411 52.5496 70.6455 52.3504 70.4772 52.3447C70.6223 52.2536 70.7499 51.7698 70.9007 51.9292C70.7963 51.7356 71.1502 51.3827 71.3068 51.0925C71.0052 51.6332 70.9762 52.1739 70.7035 52.5553ZM70.7673 54.1604C70.6977 54.1148 70.6165 54.1604 70.5411 54.2571C70.454 54.1945 70.5701 54.0067 70.6977 53.8075C70.7035 53.9953 70.8195 53.7904 70.8253 53.9782C70.9355 53.8359 71.0574 53.4546 71.156 53.6139C71.0284 53.6879 70.8949 53.9441 70.7673 54.1604ZM71.2836 53.1472C71.2662 52.8569 71.4112 52.8 71.5795 52.5496C71.5911 52.8399 71.4519 52.8968 71.2836 53.1472ZM71.6201 49.7207C71.5911 49.6239 71.6143 49.4703 71.7013 49.2597C71.8405 49.2881 71.7535 49.6296 71.6201 49.7207ZM71.5389 48.423C71.5331 48.1782 71.6665 48.0985 71.7419 47.7229C71.8869 47.7798 71.6491 48.3205 71.5389 48.423ZM72.032 46.4877C72.1712 46.613 71.8985 46.8293 71.9159 47.1138C71.7129 47.1309 71.9972 46.6926 72.032 46.4877ZM72.0088 48.0075C71.9566 47.666 72.0262 47.5066 72.1132 46.9886C72.1422 47.1366 72.061 47.6147 72.2698 47.1309C72.4323 47.3131 72.0958 47.683 72.0088 48.0075ZM72.7107 44.0573C72.5193 44.9396 72.6063 45.2754 72.5889 45.7023C72.5483 45.9072 72.4265 45.7649 72.3742 45.9242C72.6353 45.8389 72.4555 46.5048 72.3336 46.9488C72.177 46.8691 72.09 46.8691 72.0842 46.778C72.1712 46.704 72.2408 46.391 72.2176 46.2487C72.0378 46.465 72.1364 45.947 72.0204 45.9129C72.1016 45.7421 72.148 45.7478 72.1886 45.8673C72.2524 45.1957 72.5831 44.4216 72.6353 43.7556C72.6875 43.7784 72.7049 43.9321 72.7803 43.7841C72.5773 43.8809 72.8267 43.4824 72.6991 43.4938C72.6353 43.5906 72.5947 43.5621 72.5715 43.4824C72.6411 43.2775 72.7107 43.0726 72.7687 42.862C72.9486 42.7994 72.6817 43.2434 72.8093 43.2434C72.8848 42.8506 73.2328 42.253 73.0588 42.105C72.9544 42.4921 72.9602 42.6571 72.7745 42.8392C72.7803 42.8279 72.7803 42.8165 72.7861 42.8051C72.8673 42.4636 72.9312 42.1107 72.9834 41.7464C73.0588 41.7464 73.1226 41.7123 73.1864 41.661C73.1864 41.6667 73.1864 41.6667 73.1806 41.6724C73.3198 41.8659 73.2908 42.1164 73.2328 42.3725C73.169 42.6287 73.0646 42.8848 73.0936 43.1182C72.9718 43.3231 72.908 43.3003 72.8383 43.3458C72.966 43.5223 72.8093 44.3476 72.7455 44.524C72.5831 44.5354 72.8093 44.1199 72.7107 44.0573ZM72.7049 48.5311C72.8615 48.2294 72.7571 48.0701 72.9312 47.9164C73.169 47.8766 72.8673 48.7019 72.7049 48.5311ZM72.9428 47.7229C73.1458 47.5863 73.314 47.2163 73.5403 47.2163C73.3662 47.5521 73.1922 47.8766 72.9428 47.7229ZM74.9326 32.2808C74.9326 32.2808 74.9326 32.2865 74.9326 32.2922C74.9326 32.2922 74.9326 32.2865 74.9326 32.2808ZM75.153 31.8824C75.1936 31.7401 75.1994 32.2752 75.2516 32.6224C75.0312 32.5256 75.0834 32.1044 75.153 31.8824Z" fill="#00B307"/>
</svg>
