<svg width="53" height="52" viewBox="0 0 53 52" fill="none" xmlns="http://www.w3.org/2000/svg">
<rect x="0.333984" width="52" height="52" rx="26" fill="#FFD11A"/>
<path fill-rule="evenodd" clip-rule="evenodd" d="M22.584 17.75L33.834 17.75C34.0329 17.75 34.2237 17.829 34.3643 17.9697C34.505 18.1103 34.584 18.3011 34.584 18.5V29.75C34.584 30.1642 34.2482 30.5 33.834 30.5C33.4198 30.5 33.084 30.1642 33.084 29.75V20.3107L19.3643 34.0303C19.0714 34.3232 18.5965 34.3232 18.3037 34.0303C18.0108 33.7374 18.0108 33.2626 18.3037 32.9697L32.0233 19.25L22.584 19.25C22.1698 19.25 21.834 18.9142 21.834 18.5C21.834 18.0858 22.1698 17.75 22.584 17.75Z" fill="#141414"/>
</svg>
